<?xml version="1.0" encoding="UTF-8"?>
<svg xmlns="http://www.w3.org/2000/svg" viewBox="0 0 200 40" role="img" aria-label="Tencent Cloud">
  <title>Tencent Cloud</title>
  <!-- Cloud icon -->
  <g fill="currentColor">
    <path d="M25.6 12.2c-.6-4.6-4.6-8.2-9.4-8.2-3.8 0-7.1 2.2-8.6 5.5C3.6 10 .5 13.5.5 17.8c0 4.7 3.8 8.5 8.5 8.5h15.5c3.6 0 6.5-2.9 6.5-6.5 0-3.4-2.6-6.1-5.9-6.5v-1.1zm-1.2 11h-15c-3 0-5.5-2.5-5.5-5.5 0-2.9 2.2-5.3 5.1-5.5l1-.1.4-.9c1-2.3 3.4-3.9 5.9-3.9 3.4 0 6.2 2.5 6.5 5.9l.2 1.5 1.4-.1h.2c2 0 3.7 1.6 3.7 3.7s-1.7 3.7-3.7 3.7z"/>
  </g>
  <!-- Word "Tencent Cloud" -->
  <g fill="currentColor" font-family="-apple-system, BlinkMacSystemFont, 'Helvetica Neue', Arial, sans-serif" font-weight="600" font-size="15">
    <text x="40" y="25">Tencent Cloud</text>
  </g>
</svg>
